<svg version="1.2" xmlns="http://www.w3.org/2000/svg" viewBox="0 0 512 512" width="512" height="512">
    <style>.s0 { fill: #f7f7f7 }</style>
    <g transform="translate(-10, -20) scale(1.05)">
        <path fill-rule="evenodd" class="s0" d="m256.5 102.56c9.35 0.26 21.5 1.12 27 1.91 5.5 0.79 14.95 2.57 21 3.96 6.05 1.38 14.82 3.8 19.5 5.38 6.3 2.13 8.58 3.36 8.82 4.78 0.17 1.05 1.02 3.49 1.88 5.41 0.95 2.15 1.53 6.2 1.5 10.5-0.04 3.85-0.77 10.26-1.63 14.25-0.86 3.99-1.34 7.93-1.07 8.75q0.5 1.5-3.5 3.5c-2.2 1.1-5.57 3.35-7.5 5-1.93 1.65-3.5 3.79-3.51 4.75 0 0.96 0.6 2.65 1.35 3.75 0.74 1.1 3.56 3.47 6.26 5.27 2.81 1.87 5.65 3.04 6.65 2.75 0.96-0.29 2.54 0.28 3.5 1.25 0.96 0.97 14.35 15.43 29.75 32.13 15.4 16.69 28.13 30.63 28.28 30.98 0.15 0.34-8.05 43.6-18.22 96.12-10.18 52.52-18.29 96.51-18.03 97.75 0.41 1.98-0.64 2.81-8.78 6.88-5.09 2.54-14.2 6.64-20.25 9.11-6.05 2.46-16.4 5.95-23 7.75-6.6 1.8-17.63 4.07-24.5 5.04-9.77 1.38-16.21 1.64-29.5 1.2-9.71-0.33-20.43-1.29-25-2.24-4.4-0.92-12.05-2.82-17-4.23-4.95-1.4-12.6-4.01-17-5.78-4.4-1.77-12.16-5.3-17.25-7.85-5.09-2.55-12.4-6.65-16.25-9.13-5.6-3.6-6.8-4.8-6-6 0.72-1.08-4.43-27.31-18.19-92.75-10.55-50.19-19.55-91.36-20-91.5-0.44-0.14-0.42-1.26 0.05-2.5 0.47-1.24 0.69-2.7 0.49-3.25-0.2-0.55 2.68-4.47 6.4-8.72 3.71-4.25 15.07-17.6 25.25-29.68 10.18-12.08 19.06-21.99 19.75-22.03 0.69-0.04 1.45-0.86 1.71-1.82 0.25-0.96 1.48-2.08 2.75-2.49 1.26-0.4 4.09-0.74 6.29-0.74 2.2 0 6.03-1.02 8.5-2.26 3.32-1.67 5.09-3.44 6.76-6.76 1.24-2.48 2.26-6.07 2.26-8 0-2.85-0.84-4.28-4.51-7.75-2.48-2.34-5.63-6.61-7-9.5q-2.49-5.25-2.5-10.5c-0.01-2.89 0.69-6.94 1.55-9 0.86-2.06 2.77-5.31 4.25-7.22 1.48-1.91 2.91-4.34 3.19-5.4 0.36-1.38 2.36-2.48 7-3.81 3.57-1.04 10.1-2.6 14.5-3.48 4.4-0.88 12.28-2.19 17.5-2.93 6.28-0.88 15.26-1.17 26.5-0.85zm-24.44 14.94c0.05 0.55 1.07 2.67 2.27 4.72 2 3.43 2.59 3.75 7.67 4.23 3.03 0.28 8.2 0.57 11.5 0.65 3.3 0.08 8.14 0.09 10.75 0.02 4.59-0.12 4.85-0.29 7.75-5.12 1.65-2.75 2.66-5.17 2.25-5.38-0.41-0.21-7.05-0.59-14.75-0.86-7.7-0.27-17.04-0.21-20.77 0.13-3.72 0.33-6.72 1.06-6.67 1.61zm-14.06 1.06c-1.38 0.27-2.13 0.82-1.67 1.21 0.46 0.4 1.23 0.73 1.71 0.73 0.48 0 1.46 0.72 2.17 1.59 0.71 0.88 4.22 2.1 7.79 2.71 3.57 0.62 6.61 0.92 6.75 0.66 0.14-0.25-0.88-2.26-2.25-4.46-1.98-3.18-3.07-3.98-5.25-3.88-1.51 0.06-3.65 0.3-4.75 0.53-1.1 0.24-3.13 0.65-4.5 0.91zm52.43 7.37c-0.79 1.22 0.11 1.31 6.07 0.64 3.85-0.43 7.9-0.93 9-1.1 1.1-0.17 5.26-0.8 9.25-1.39 3.99-0.59 7.26-1.42 7.27-1.83 0.01-0.41-3.7-1.52-8.25-2.45-4.55-0.94-10.35-1.99-12.89-2.35-4.53-0.64-4.67-0.58-7.07 3.2-1.35 2.12-2.87 4.49-3.38 5.28zm-75.5 9.75c0.06 2.1 0.89 4.81 1.84 6.02 1.14 1.45 4.8 3.08 10.73 4.78 4.95 1.42 12.38 3.22 16.5 4.01 4.13 0.79 9.3 1.71 11.5 2.05 2.2 0.33 11.43 0.83 20.5 1.1 13.33 0.4 19.19 0.1 30.5-1.55 7.7-1.13 18.95-3.32 25-4.87 10.5-2.7 11.03-2.96 11.63-5.77 0.35-1.62 0.69-4.64 0.75-6.7 0.07-2.06-0.33-3.75-0.88-3.75-0.55 0-3.81 1.06-7.25 2.35-3.44 1.29-10.75 3.53-16.25 4.97-5.5 1.43-13.38 3.13-17.5 3.77-4.63 0.72-7.98 1.78-8.75 2.79-0.98 1.27-1.14 1.29-0.75 0.12 0.43-1.25-0.52-1.44-5.74-1.13-3.44 0.2-6.91 0.88-7.7 1.5-1.11 0.86-1.28 0.84-0.75-0.12 0.52-0.94-0.81-1.25-5.31-1.25-3.67 0-5.81 0.39-5.5 1 0.28 0.55-0.51 0.38-1.75-0.38-1.24-0.76-4.84-1.66-8-2-5.69-0.61-5.74-0.6-4.69 1.63 1.02 2.19 1.01 2.2-0.52 0.25-0.87-1.1-1.57-2.34-1.56-2.75 0.01-0.41-0.54-0.74-1.23-0.73-0.69 0.01-4.85-1.17-9.25-2.63-4.4-1.45-11.15-4.27-15-6.26-3.85-1.99-7.29-3.76-7.63-3.93-0.35-0.18-1.18 0.58-1.84 1.67-0.67 1.1-1.16 3.72-1.1 5.81zm11.32 39.7c-1.22 3.4-3.27 6.23-6.75 9.28-2.75 2.42-4.78 4.53-4.5 4.7 0.28 0.17 6.8 1.94 14.5 3.95l14 3.64 73 0.11c14.73-5.69 19.23-7.51 19.5-7.72 0.27-0.21-1.17-2.06-3.2-4.11-2.04-2.05-4.4-5.42-5.25-7.48-0.85-2.06-1.55-5.21-1.54-7 0-1.79 0.69-4.6 1.53-6.25 0.84-1.65 1.51-3.11 1.49-3.25-0.02-0.14-3.07 0.44-6.78 1.28-3.71 0.84-12.15 2.19-18.75 2.99-6.6 0.81-17.63 1.55-24.5 1.64-6.87 0.09-12.95-0.07-13.5-0.37-0.55-0.29-4.37-0.84-8.5-1.22-4.12-0.38-11.78-1.57-17-2.64-5.22-1.07-9.78-1.94-10.13-1.94-0.35 0.01-0.91 2.15-1.25 4.76-0.35 2.61-1.41 6.95-2.37 9.63zm-64.02 58.62l-8.97 10.5c31.96 13.85 43.49 18.88 46.24 20.1l5 2.23c21.16-45.98 27.24-59.41 27.15-59.5-0.08-0.09-8.03-2.25-17.65-4.8-9.63-2.54-18.18-4.82-19.01-5.05-0.97-0.28-5.45 4.25-12.65 12.8-6.13 7.27-15.18 17.94-20.11 23.72zm159.12-24.25c0.19 0.41 5.93 13.44 12.75 28.94l12.4 28.2c4.65-2 16.02-6.36 28.27-10.99 12.25-4.62 22.27-8.63 22.26-8.9 0-0.28-9.5-10.85-21.11-23.5-11.6-12.65-21.84-23.77-22.76-24.71-1.56-1.61-2.55-1.36-16.91 4.25-8.39 3.28-15.09 6.3-14.9 6.71zm-79.06 5.99c-1.46 3.17-7.71 16.79-13.89 30.26l-11.23 24.5c5.68 0.54 31.74 0.43 61.58 0.1 29.84-0.33 54.25-0.94 54.25-1.35 0-0.41-5.75-13.8-12.77-29.75l-12.77-29-62.52-0.53zm-72.78 129.27c9.79 46.47 18.36 85.17 19.05 86 0.68 0.82 5.68 3.82 11.09 6.66 5.42 2.84 12.77 6.32 16.35 7.74 3.57 1.41 6.59 2.47 6.69 2.33 0.11-0.13-4.96-37.81-11.26-83.73-6.29-45.93-11.61-83.95-11.81-84.5-0.2-0.55-10.66-5.45-23.24-10.88-12.58-5.44-23.44-10.13-24.13-10.43-0.73-0.32-1.1 0.05-0.9 0.88 0.2 0.79 8.37 39.45 18.16 85.93zm178.74-63.9c-0.13 0.77-3.6 37.17-7.71 80.9-4.11 43.72-7.71 81.18-8.01 83.25-0.52 3.66-0.47 3.73 2.22 3.08 1.51-0.36 7.02-2.43 12.25-4.6 5.22-2.17 11.52-4.98 14-6.23l4.5-2.28c25.34-130.76 32.86-169.96 33.05-171.47 0.2-1.52 0.04-2.72-0.35-2.68-0.38 0.03-11.73 4.24-25.2 9.35-14.6 5.53-24.6 9.84-24.75 10.68zm-134.29 4.15c-0.03 0.68 5 38.37 11.18 83.75 6.17 45.37 11.47 82.82 11.79 83.21 0.31 0.39 5.07 1.71 10.57 2.93 8.41 1.87 13.18 2.23 30 2.29 15.26 0.05 22.25-0.36 29.5-1.73 5.22-0.98 10.04-2.11 10.7-2.5 0.82-0.48 3.64-26.43 8.74-80.2 4.15-43.73 7.77-81.87 8.05-84.75l0.51-5.25c-46.11 0.36-73.34 0.58-90.25 0.73-23.76 0.21-30.76 0.55-30.79 1.52z"/>
    </g>
</svg>
