<svg version="1.2" xmlns="http://www.w3.org/2000/svg" viewBox="0 0 512 512" width="512" height="512">
    <style>.s0 { fill: #f7f7f7 }</style>
    <g transform="translate(25.6, 25.6) scale(0.9)">
        <path fill-rule="evenodd" class="s0" d="m411.59 88.43c18.66 18.74 43.15 43.45 54.42 54.9 11.27 11.46 25.34 25.19 42.03 40.17l-0.04 131.5-4.25 1.86c-2.34 1.02-7.62 3-11.75 4.41-4.12 1.4-77.47 32.79-163 69.74-85.52 36.96-157.19 67.38-159.25 67.6-3.44 0.36-5.18-0.62-21-11.8-9.49-6.71-25.12-17.84-34.75-24.73-9.62-6.9-19.52-14-22-15.78-2.47-1.78-11.7-8.49-20.5-14.92-8.8-6.42-20.27-14.68-25.5-18.36-5.22-3.68-16.02-11.47-24-17.32-11.29-8.28-15.22-10.65-21-10.7l-0.01-70.25c0-38.64 0.34-72.39 0.75-75.02 0.44-2.75 1.29-4.75 2.01-4.75 0.69 0.01 1.25-0.66 1.25-1.48q0-1.5 3-1.5c2.5 0 2.92-0.33 2.5-2-0.32-1.26 0.14-2.34 1.25-2.91 0.96-0.5 20.2-7.02 42.75-14.48 22.55-7.46 48.2-16 57-18.98 8.8-2.98 32.43-11.56 52.5-19.06 20.08-7.51 41.9-15.68 48.5-18.17 6.6-2.48 25.95-9.69 43-16 17.05-6.32 37.52-13.93 45.5-16.9 7.98-2.98 25.08-9.41 38-14.3 12.93-4.89 26.65-9.92 30.5-11.17 3.85-1.25 7.26-2.59 7.59-2.97 0.32-0.39 15.85 14.63 34.5 33.37zm-55.59-12.89c-10.72 4.05-42 15.71-69.5 25.93-27.5 10.21-56.18 20.93-63.73 23.8-7.55 2.88-13.62 5.31-13.5 5.42 0.13 0.1 2.03-0.21 4.23-0.68 2.2-0.48 11.65-2.06 21-3.51 9.35-1.45 25.55-3.5 36-4.56 10.45-1.06 28.68-2.21 40.5-2.56 12.98-0.38 28.04-0.18 38 0.52 9.08 0.63 22.8 2.06 30.5 3.17 7.7 1.11 19.63 3.39 26.5 5.08 6.88 1.68 17.68 4.87 24 7.08 6.33 2.22 13.3 4.94 15.5 6.04 3.13 1.58-0.59-2.73-17.18-19.88-11.65-12.04-28.3-28.93-37-37.54l-15.82-15.65zm-85.5 59.51c-11.55 1.13-31.35 3.8-44 5.93-12.65 2.13-32.45 5.98-44 8.56-11.55 2.57-29.32 6.91-39.5 9.63-10.17 2.72-24.57 6.73-32 8.92-7.42 2.18-19.57 6.19-27 8.9-7.42 2.72-22.27 8.13-33 12.04-10.72 3.9-20.17 7.45-21 7.89-1.16 0.61-0.47 1.48 3 3.79 2.48 1.65 8.55 5.29 13.5 8.07 4.95 2.79 14.18 7.38 20.5 10.21 6.33 2.82 16.68 6.88 23 9.03 6.33 2.15 16.9 5.25 23.5 6.89 6.6 1.64 17.18 3.9 23.5 5.02 6.33 1.11 18.48 2.74 27 3.61 9.74 1 25.71 1.62 43 1.68 15.13 0.05 33.13-0.43 40-1.07 6.88-0.64 18.13-1.87 25-2.72 6.88-0.86 20.38-2.86 30-4.45 9.63-1.59 24.02-4.28 32-5.97 7.98-1.69 23.27-5.28 34-7.99 10.73-2.7 26.7-6.98 35.5-9.51 8.8-2.52 30.85-9.56 49-15.64 18.15-6.07 34-11.57 35.22-12.21 2.15-1.13 2.01-1.34-3.93-6.17-3.39-2.75-10.47-7.83-15.73-11.3-5.26-3.47-14.06-8.51-19.56-11.21-5.5-2.7-14.95-6.69-21-8.86-6.05-2.17-15.5-5.08-21-6.47-5.5-1.39-13.82-3.24-18.5-4.12-4.67-0.88-14.35-2.29-21.5-3.13-7.32-0.87-24.15-1.68-38.5-1.86-14.02-0.17-27.98-0.14-31 0.07-3.02 0.21-14.95 1.3-26.5 2.44zm198.5 71.3c-12.37 4.64-30.15 11.38-39.5 14.99-9.35 3.61-30.05 11.57-46 17.69-15.95 6.12-44.75 17.12-64 24.45-19.25 7.32-38.6 14.76-43 16.52-4.4 1.76-25.1 9.72-46 17.69-20.9 7.96-42.05 16.03-47 17.93l-9 3.45c-0.94 63.88-1.16 91.98-1.1 103.67 0.05 11.69 0.21 21.25 0.35 21.25 0.14 0 7.34-3.32 16-7.37 8.66-4.06 19.01-8.78 23-10.5 3.99-1.72 7.59-3.12 8-3.11 0.41 0.01 8.85-3.54 18.75-7.88 9.9-4.34 20.7-9.26 24-10.94 3.3-1.67 15.45-7.17 27-12.23 11.55-5.06 22.58-9.64 24.5-10.19 1.93-0.55 8.9-3.6 15.5-6.79 6.6-3.19 23.02-10.62 36.5-16.51 13.48-5.9 29-12.64 34.5-14.98 5.5-2.34 22.38-9.75 37.5-16.47 15.13-6.73 29.3-12.86 31.5-13.64 2.2-0.78 6.7-2.74 10-4.36 3.3-1.62 8.59-4.09 11.75-5.49l5.75-2.54c0-93.87-0.27-104.98-1.25-104.93-0.69 0.04-2.15 0.47-3.25 0.96-1.1 0.49-12.12 4.69-24.5 9.33zm-455 129.14c12.01 8.81 30.13 21.83 48 34.63 17.88 12.79 45.33 32.46 61 43.72 15.68 11.25 30.53 22 33 23.89l4.5 3.43c0.95-36.94 1.29-64.77 1.36-85.67l0.14-38c-5.04-3.98-38.11-28.84-76.75-57.82-38.64-28.97-70.47-52.68-70.75-52.68-0.27 0-0.5 28.91-0.5 64.25zm107.25-63.01c25.99 19.52 47.92 35.49 48.75 35.5 0.82 0 13.2-4.52 27.5-10.06 14.3-5.54 32.97-12.7 41.5-15.91 8.52-3.22 34.29-13.08 57.25-21.93 22.96-8.85 42.31-16.08 43-16.06 0.69 0.02 1.02-0.22 0.75-0.53-0.28-0.3-7.48 0.79-16 2.43-8.53 1.64-21.35 3.88-28.5 4.98-7.15 1.11-21.1 2.97-31 4.16-12.96 1.54-26.4 2.29-48 2.66-18.2 0.31-35.9 0.07-45-0.62-8.25-0.62-22.2-2.26-31-3.64-8.8-1.38-21.4-3.83-28-5.46-6.6-1.62-18.04-4.93-25.42-7.36-7.38-2.42-13.35-4.23-13.25-4.03 0.09 0.21 21.43 16.35 47.42 35.87z"/>
    </g>
</svg>
