<svg version="1.2" xmlns="http://www.w3.org/2000/svg" viewBox="0 0 512 512" width="512" height="512">
    <style>.s0 { fill: #f7f7f7 }</style>
    <g transform="translate(25.6, 25.6) scale(0.9)">
        <path fill-rule="evenodd" class="s0" d="m255.5 67.08c1.65-0.05 29.77 7.76 62.5 17.33 32.73 9.58 59.61 17.23 59.75 17 0.14-0.23-0.43-1.42-1.26-2.66-0.83-1.24-1.49-3.82-1.46-5.75 0.04-3.06 1.19-4.64 9.26-12.62 5.06-5.01 11.12-10.07 13.46-11.25 2.8-1.4 6.13-2.13 9.75-2.13q5.5 0 9.75 2.17c2.34 1.19 8.64 6.59 14 12 5.36 5.4 10.65 11.63 11.75 13.83 1.27 2.55 2 6 2 9.5 0 3.62-0.73 6.95-2.13 9.75-1.18 2.34-6.29 8.41-11.36 13.5-8 8.02-9.68 9.25-12.62 9.26-1.86 0-4.52-0.75-5.89-1.68-2.49-1.67-2.52-1.66-7.71 4.24-5.09 5.79-5.2 6.05-4.7 10.93 0.29 2.75 3.4 43.03 13.32 174l-2.19 3.5c-1.21 1.93-5.78 8-10.16 13.5-4.38 5.5-14.06 16.24-21.51 23.87-7.45 7.63-18.73 18.21-25.05 23.52-6.32 5.3-15.32 12.39-20 15.75-4.68 3.36-13.34 9.09-19.25 12.73-5.91 3.65-16.6 9.56-23.75 13.13-7.15 3.57-17.5 8.3-23 10.5-5.5 2.2-11.35 4-13 4-1.65 0-8.06-2.05-14.25-4.56-6.19-2.5-17.55-7.81-25.25-11.78-7.7-3.97-19.78-11.03-26.86-15.69-12.83-8.45-12.85-8.47-14.5-6.33-0.9 1.18-6.82 8.05-13.14 15.28-6.32 7.23-11.95 13.29-12.5 13.48-0.55 0.18-17.72 2.53-38.15 5.22-28.21 3.71-37.82 4.64-39.97 3.88-1.7-0.6-3.23-2.14-3.85-3.85-0.8-2.19 0.07-11.2 3.78-39.5 2.65-20.16 5-37.33 5.23-38.15 0.23-0.82 6.35-6.68 13.6-13 7.26-6.32 13.83-11.95 14.61-12.5 1.17-0.82 0.7-2.06-6.73-13l7.97-104.5c4.39-57.47 8.19-105.85 8.45-107.5 0.26-1.65 1.24-3.67 2.19-4.5 0.94-0.83 31.9-10.35 68.79-21.18 36.9-10.82 68.43-19.7 70.08-19.74zm-126.13 52.27c-0.48 0.47-4.29 45.92-8.47 101l-7.59 100.15c4.18 5.41 4.2 5.41 6.69 3.53 1.37-1.04 5.36-4.51 8.86-7.71l6.37-5.82c12.79-166.21 13.41-172.59 15.27-174.44 1.37-1.38 18.17-6.75 53.5-17.13l51.5-15.13 91.3 26.7c12.94-12.22 16.82-16.04 16.96-16.38 0.14-0.34-23.94-7.71-53.5-16.37-29.57-8.66-54.21-15.71-54.76-15.68-0.55 0.04-28.96 8.25-63.13 18.25-34.17 10-62.52 18.56-63 19.03zm263.13-25.34l25.57 25.49c10.62-10.66 11.95-12.67 11.95-15-0.01-2.46-1.76-4.75-9.76-12.74-8.04-8.03-10.29-9.75-12.79-9.75-2.38-0.01-4.32 1.28-9 5.99zm-69.26 78.73c-0.14 0.42 3.35 4.37 7.75 8.77l8.01 8c4.44-4.65 16.21-17.48 29.02-31.5 12.82-14.03 25.36-27.64 27.89-30.26l4.59-4.75c-8.53-8.54-11.23-10.99-11.5-10.96-0.28 0.04-15.13 13.53-33 30-17.88 16.47-32.62 30.28-32.76 30.7zm-160.24-25.96c-0.28 0.23-3.04 34.02-6.15 75.08-3.11 41.05-5.58 74.7-5.5 74.77 0.08 0.08 25.27-21.75 55.97-48.5l55.82-48.62c-21.35-21.27-25.33-25.96-25.87-28.21-0.74-3.08-0.31-3.68 10.93-15.25 10.95-11.27 11.94-12.04 15.5-12.01 3.49 0.03 4.71 0.94 15.02 11.25l11.22 11.22c8.73-8.25 10.85-9.5 13.06-9.5 1.73 0 4.26 1.05 6 2.5l3 2.5c16.35-15.12 20.74-19.77 20.3-20.09-0.44-0.32-17.23-5.38-37.3-11.23-20.08-5.86-37.85-10.61-39.5-10.57-1.65 0.05-23.03 5.97-47.5 13.16-24.48 7.19-44.73 13.26-45 13.5zm204.22 34.95c-0.15 0.43 1.99 30.14 4.75 66.03 4.44 57.62 4.86 65.57 3.61 68-0.77 1.51-5.42 7.25-10.32 12.75-4.9 5.5-13.61 14.44-19.34 19.88-5.73 5.43-14.69 13.3-19.9 17.5-5.22 4.19-15.79 11.8-23.5 16.91-7.71 5.11-20.55 12.53-28.52 16.49-9.77 4.85-15.64 7.19-18 7.18-2.31-0.02-8.46-2.48-18-7.21-7.98-3.95-19.34-10.35-25.25-14.22-5.91-3.87-11.2-7.03-11.75-7.03-0.55 0-3.98 3.48-7.61 7.75l-6.61 7.75c16.95 10.85 26.11 16.35 31.29 19.22 5.19 2.88 15.28 7.78 22.43 10.89 7.15 3.12 14.12 5.67 15.5 5.67 1.37 0 8.35-2.55 15.5-5.66 7.15-3.11 17.5-8.16 23-11.23 5.5-3.06 14.95-8.85 21-12.86 6.05-4.01 14.82-10.3 19.5-13.99 4.67-3.68 13.4-11.05 19.4-16.37 6-5.32 15.45-14.63 21-20.69 5.55-6.06 13.07-14.84 16.71-19.5l6.61-8.48c-9.47-122.72-12.48-158.57-12.81-158.84-0.32-0.27-4.59 3.95-9.5 9.4-4.9 5.44-9.04 10.23-9.19 10.66zm-112.19-11.22l86.47 86.53 9-9.07c-66.65-66.63-86.25-85.97-86.55-85.97-0.3 0-2.43 1.92-4.73 4.26zm62.76 23.81c13.47 13.55 16.94 16.56 17.92 15.5 0.97-1.06-2.09-4.63-15.51-18.13-13.46-13.53-16.95-16.56-17.92-15.5-0.96 1.05 2.12 4.66 15.51 18.13zm33.98 7.99l2.28 2.2c-1.04-5.43-1.42-7.13-1.53-7.28-0.1-0.15-0.82 0.44-1.6 1.31-1.24 1.37-1.13 1.85 0.85 3.77zm-261.17 167.2c-5.91 45.72-7.51 59.12-7.37 59.28 0.15 0.15 13.54-1.44 29.77-3.54l29.5-3.82c122.09-140.22 157.8-181.6 158.14-182.42 0.38-0.96-0.9-2.96-3.52-5.5l-4.13-4c-139.22 139.21-148.87 148.49-151.49 148.52-1.84 0.01-3.87-0.86-5.23-2.25-1.29-1.32-2.24-3.54-2.25-5.27-0.01-2.65 8.72-11.74 74.23-77.24l74.25-74.23c-6.2-6.25-8.45-8.02-9-7.97-0.55 0.06-41.93 35.73-91.95 79.27zm254.89-147.47l10.41 10.47c-0.89-13.18-1.46-17.34-1.83-17.75-0.37-0.41-2.45 1.06-4.63 3.27zm-82.01 83.1c-26.94 30.95-49.77 57.3-50.74 58.56l-1.75 2.3c14.34 9.37 24.47 15.11 31.75 18.8l13.25 6.7c20.54-10.33 32.35-17.23 39.5-22 7.15-4.76 17.27-12.11 22.49-16.33 5.22-4.22 15.14-13.29 22.05-20.17 6.92-6.87 14.65-14.97 17.17-18l4.6-5.5c-2.91-36.42-3.75-47.22-3.75-47.5 0-0.27-3.16 2.54-7.03 6.25-6.35 6.1-7.34 6.7-10.28 6.23-2.5-0.4-6.1-3.38-15.76-13.06l-12.51-12.54z"/>
    </g>
</svg>
